# AST/ASF file generated using VICON BodyLanguage
# -----------------------------------------------
:version 1.10
:name VICON
:units
  mass 1.0
  length 0.45
  angle deg
:documentation
   .ast/.asf automatically generated from VICON data using
   VICON BodyBuilder and BodyLanguage model FoxedUp or BRILLIANT.MOD
:root
   order TX TY TZ RX RY RZ
   axis XYZ
   position 0 0 0  
   orientation 0 0 0 
:bonedata
  begin
     id 1 
     name lhipjoint
     direction 0.645893 -0.654526 0.392961 
     length 2.38111 
     axis 0 0 0  XYZ
  end
  begin
     id 2 
     name lfemur
     direction 0.34202 -0.939693 0  
     length 6.6822  
     axis 0 0 20  XYZ
    dof rx ry rz
    limits (-160.0 20.0)
           (-70.0 70.0)
           (-60.0 70.0)
  end
  begin
     id 3 
     name ltibia
     direction 0.34202 -0.939693 0   
     length 6.93904   
     axis 0 0 20   XYZ
    dof rx
    limits (-10.0 170.0)
  end
  begin
     id 4 
     name lfoot
     direction 0.0694967 -0.190941 0.979138   
     length 2.13616   
     axis -90 7.62852e-016 20   XYZ
    dof rx rz
    limits (-45.0 90.0)
           (-70.0 20.0)
  end
  begin
     id 5 
     name ltoes
     direction 1.535e-011 -4.2202e-011 1   
     length 1.07536   
     axis -90 7.62852e-016 20   XYZ
    dof rx
    limits (-90.0 20.0)
  end
  begin
     id 6 
     name rhipjoint
     direction -0.700219 -0.612087 0.367481   
     length 2.54621  
     axis 0 0 0  XYZ 
  end
  begin
     id 7 
     name rfemur
     direction -0.34202 -0.939693 0   
     length 6.55353   
     axis 0 0 -20   XYZ
    dof rx ry rz
    limits (-160.0 20.0)
           (-70.0 70.0)
           (-70.0 60.0)
  end
  begin
     id 8 
     name rtibia
     direction -0.34202 -0.939693 0   
     length 6.8736   
     axis 0 0 -20   XYZ
    dof rx
    limits (-10.0 170.0)
 end
 begin
     id 9 
     name rfoot
     direction -0.0679995 -0.186827 0.980037   
     length 2.1218  
     axis -90 -7.62852e-016 -20   XYZ
    dof rx rz
    limits (-45.0 90.0)
           (-20.0 70.0)
  end
  begin
     id 10 
     name rtoes
     direction -1.53589e-011 -4.21772e-011 1   
     length 1.06864   
     axis -90 -7.62852e-016 -20   XYZ
    dof rx
    limits (-90.0 20.0)
  end
  begin
     id 11 
     name lowerback
     direction -0.0416607 0.996347 -0.0745409   
     length 2.12205   
     axis 0 0 0   XYZ
    dof rx ry rz
    limits (-20.0 45.0)
           (-30.0 30.0)
           (-30.0 30.0)
  end
  begin
     id 12 
     name upperback
     direction -0.000153993 0.999276 -0.0380568   
     length 2.12759   
     axis 0 0 0   XYZ
    dof rx ry rz
    limits (-20.0 45.0)
           (-30.0 30.0)
           (-30.0 30.0)
  end
  begin
     id 13 
     name thorax
     direction 0.0187671 0.999821 -0.00241421   
     length 2.13704   
     axis 0 0 0   XYZ
    dof rx ry rz
    limits (-20.0 45.0)
           (-30.0 30.0)
           (-30.0 30.0)
  end
  begin
     id 14 
     name lowerneck
     direction 0.0268157 0.964865 0.261374   
     length 1.65253   
     axis 0 0 0   XYZ
    dof rx ry rz
    limits (-20.0 45.0)
           (-30.0 30.0)
           (-30.0 30.0)
  end
  begin
     id 15 
     name upperneck
     direction 0.00263774 0.939908 -0.341418   
     length 1.72375   
     axis 0 0 0   XYZ
    dof rx ry rz
    limits (-20.0 45.0)
           (-30.0 30.0)
           (-30.0 30.0)
  end
  begin
     id 16
     name head
     direction -0.00526001 0.989001 -0.147818  
     length 1.74878  
     axis 0 0 0   XYZ
    dof rx ry rz
    limits (-20.0 45.0)
           (-30.0 30.0)
           (-30.0 30.0)
  end
  begin
     id 17 
     name lclavicle
     direction 0.881214 0.461162 -0.103884  
     length 3.25108  
     axis 0 0 0   XYZ
    dof ry rz
    limits (-20.0 10.0)
           (0.0 20.0)
  end
  begin
     id 18 
     name lhumerus
     direction 1 -4.4899e-011 3.38092e-027   
     length 4.87408   
     axis 180 -30 -90   XYZ
    dof rx ry rz
    limits (-60.0 90.0)
           (-90.0 90.0)
           (-90.0 90.0)
  end
  begin
     id 19
     name lradius
     direction 1 -4.48931e-011 9.96288e-027   
     length 2.76729   
     axis 180 -30 -90   XYZ
    dof rx
    limits (-10.0 170.0)
  end
  begin
     id 20
     name lwrist
     direction 1 -4.4896e-011 1.50617e-026   
     length 1.38364   
     axis -9.31234e-015 90 90   XYZ
    dof ry
    limits (-180.0 0.0)
 end
  begin
     id 21 
     name lhand
     direction 1 -4.49038e-011 3.01286e-026   
     length 0.98922   
     axis -1.92217e-014 90 90   XYZ
    dof rx rz
    limits (-90.0 90.0)
           (-45.0 45.0)
  end
  begin
     id 22 
     name lfingers
     direction 1 -4.49051e-011 6.02588e-026   
     length 0.797535   
     axis -3.84436e-014 90 90   XYZ
    dof rx
    limits (0.0 90.0)
  end
  begin
     id 23
     name lthumb
     direction 0.707107 -6.34901e-011 0.707107   
     length 1.14511   
     axis -90 45 2.19363e-014   XYZ
    dof rx rz
    limits (-45.0 45.0)
           (-45.0 45.0)
  end
  begin
     id 24 
     name rclavicle
     direction -0.893894 0.441652 -0.0767889   
     length 3.29361  
     axis 0 0 0   XYZ 
    dof ry rz
    limits (-10.0 20.0)
           (-20.0 0.0)
  end
  begin
     id 25 
     name rhumerus
     direction -1 -4.48945e-011 8.0491e-028  
     length 4.71404   
     axis 180 30 90   XYZ
    dof rx ry rz
    limits (-90.0 60.0)
           (-90.0 90.0)
           (-90.0 90.0)
  end
  begin
     id 26 
     name rradius
     direction -1 -4.48986e-011 9.27795e-027   
     length 2.83468   
     axis 180 30 90   XYZ
    dof rx
    limits (-10.0 170.0)
  end
  begin
     id 27 
     name rwrist
     direction -1 -4.49029e-011 1.5064e-026   
     length 1.41734   
     axis -9.31234e-015 -90 -90   XYZ
    dof ry
    limits (-180.0 0.0)
  end
  begin
     id 28
     name rhand
     direction -1 -4.48857e-011 3.01165e-026   
     length 0.868195   
     axis -1.92217e-014 -90 -90   XYZ
    dof rx rz
    limits (-90.0 90.0)
           (-45.0 45.0)
  end
  begin
     id 29
     name rfingers
     direction -1 -4.49048e-011 6.02585e-026   
     length 0.699961   
     axis -3.84436e-014 -90 -90   XYZ
    dof rx
    limits (0.0 90.0)
  end
  begin
     id 30
     name rthumb
     direction -0.707107 -6.34854e-011 0.707107   
     length 1.00501   
     axis -90 -45 -2.19363e-014   XYZ
    dof rx rz
    limits (-45.0 45.0)
           (-45.0 45.0)
  end
:hierarchy
  begin
    root lhipjoint rhipjoint lowerback
    lhipjoint lfemur
    lfemur ltibia
    ltibia lfoot
    lfoot ltoes
    rhipjoint rfemur
    rfemur rtibia
    rtibia rfoot
    rfoot rtoes
    lowerback upperback
    upperback thorax
    thorax lowerneck lclavicle rclavicle
    lowerneck upperneck
    upperneck head
    lclavicle lhumerus
    lhumerus lradius
    lradius lwrist
    lwrist lhand lthumb
    lhand lfingers
    rclavicle rhumerus
    rhumerus rradius
    rradius rwrist
    rwrist rhand rthumb
    rhand rfingers
  end

#!OML:ASF H:\ManfredObstacles\Project 1\Capture day 2\Session 1\male.ASF
:FULLY-SPECIFIED
:DEGREES
21
root 0.947788 15.0554 30.8025 -181.867 -4.4255 -181.563
lowerback 3.77101 2.153 -4.45742
upperback 4.9799 2.45652 -1.83013
thorax 2.90825 0.949867 0.566346
lowerneck -30.9757 0.44912 -0.0937765
upperneck 43.759 -5.29843 2.73916
head 25.7227 -2.62399 -0.536522
rclavicle 2.51463e-014 -1.98785e-014
rhumerus -47.8266 -1.94895 -84.8715
rradius 59.7937
rwrist 16.4894
rhand -11.4433 -5.48415
rfingers 7.12502
rthumb 14.5934 -34.9507
lclavicle 2.51463e-014 -1.98785e-014
lhumerus -48.9105 -21.0469 92.457
lradius 83.4283
lwrist -22.3216
lhand -17.1975 5.40215
lfingers 7.12502
lthumb 9.04473 35.1882
rfemur -29.1612 -3.29507 18.6861
rtibia 85.1657
rfoot 1.59265 -23.6484
rtoes -20.9702
lfemur -19.3678 -1.59207 -26.8524
ltibia 49.2005
lfoot -0.411508 25.9678
ltoes -7.94451
22
root 0.953394 15.0725 30.6329 -182.075 -4.68968 -181.583
lowerback 4.13156 1.85937 -4.55996
upperback 5.114 2.02535 -1.73325
thorax 2.85681 0.7212 0.721478
lowerneck -30.9255 0.659655 -0.0383656
upperneck 43.9225 -5.02516 2.62189
head 25.8576 -2.55968 -0.546245
rclavicle 3.99557e-014 -3.18055e-015
rhumerus -48.0112 -2.1308 -84.1025
rradius 58.9655
rwrist 16.5265
rhand -11.2615 -5.61226
rfingers 7.12502
rthumb 14.7686 -35.0661
lclavicle 3.99557e-014 -3.18055e-015
lhumerus -48.1404 -21.2003 92.6964
lradius 83.2194
lwrist -22.5475
lhand -17.2171 5.06596
lfingers 7.12502
lthumb 9.02582 34.8529
rfemur -30.5268 -3.11564 18.5796
rtibia 84.0812
rfoot 1.05273 -23.883
rtoes -20.6805
lfemur -18.1858 -1.83988 -26.8696
ltibia 48.8143
lfoot -0.596338 26.2482
ltoes -8.19245
23
root 0.959353 15.0946 30.462 -182.205 -4.9722 -181.534
lowerback 4.36378 1.56296 -4.62722
upperback 5.2533 1.60284 -1.59267
thorax 2.88531 0.497268 0.907844
lowerneck -30.8502 0.850417 -0.0277957
upperneck 44.06 -4.75646 2.52724
head 25.9587 -2.50167 -0.533502
rclavicle -2.48481e-015 3.18055e-014
rhumerus -48.1393 -2.27171 -83.3162
rradius 58.1856
rwrist 16.4947
rhand -11.1593 -5.77619
rfingers 7.12502
rthumb 14.867 -35.2228
lclavicle -2.48481e-015 3.18055e-014
lhumerus -47.3443 -21.3764 92.9353
lradius 83.0247
lwrist -22.6797
lhand -17.1736 4.75117
lfingers 7.12502
lthumb 9.06787 34.5363
rfemur -31.8399 -2.95983 18.542
rtibia 82.6984
rfoot 0.644694 -24.0925
rtoes -20.5682
lfemur -17.0476 -2.13995 -26.8192
ltibia 48.3383
lfoot -0.676677 26.5166
ltoes -8.39635
24
root 0.965582 15.1222 30.2896 -182.242 -5.26193 -181.432
lowerback 4.50096 1.26728 -4.63487
upperback 5.34987 1.19394 -1.44981
thorax 2.92617 0.285284 1.06604
lowerneck -30.6101 1.03303 -0.0354815
upperneck 44.1514 -4.51464 2.49321
head 25.9408 -2.45337 -0.48546
rclavicle 2.0276e-014 2.78299e-014
rhumerus -48.2941 -2.42676 -82.5549
rradius 57.4652
rwrist 16.3873
rhand -11.1164 -5.93388
rfingers 7.12502
rthumb 14.9084 -35.3774
lclavicle 2.0276e-014 2.78299e-014
lhumerus -46.6183 -21.6009 93.1431
lradius 82.8659
lwrist -22.7232
lhand -17.0459 4.43422
lfingers 7.12502
lthumb 9.19103 34.2139
rfemur -33.1096 -2.81875 18.5536
rtibia 81.0299
rfoot 0.405073 -24.2856
rtoes -20.5554
lfemur -15.9787 -2.48485 -26.7152
ltibia 47.7945
lfoot -0.643996 26.7561
ltoes -8.60282
25
root 0.972106 15.1556 30.1158 -182.186 -5.55483 -181.303
lowerback 4.55633 0.973563 -4.59854
upperback 5.38757 0.799822 -1.32149
thorax 2.95379 0.0868874 1.18593
lowerneck -30.2403 1.22922 0.0197968
upperneck 44.2051 -4.2797 2.45911
head 25.8192 -2.39792 -0.448996
rclavicle -3.8763e-015 -9.54166e-015
rhumerus -48.498 -2.63704 -81.8056
rradius 56.7908
rwrist 16.3141
rhand -11.0621 -6.04678
rfingers 7.12502
rthumb 14.9607 -35.4864
lclavicle -3.8763e-015 -9.54166e-015
lhumerus -45.9943 -21.8826 93.3241
lradius 82.7415
lwrist -22.7013
lhand -16.8641 4.19072
lfingers 7.12502
lthumb 9.36646 33.9626
rfemur -34.3304 -2.69544 18.5841
rtibia 79.0873
rfoot 0.380249 -24.4568
rtoes -20.5667
lfemur -14.9882 -2.86716 -26.5806
ltibia 47.1971
lfoot -0.534285 26.9489
ltoes -8.81723
26
root 0.97911 15.1945 29.9407 -182.045 -5.83739 -181.187
lowerback 4.50138 0.684562 -4.58437
upperback 5.41078 0.421387 -1.19339
thorax 3.02877 -0.103632 1.31806
lowerneck -29.8128 1.40741 0.0257497
upperneck 44.2407 -4.06478 2.46721
head 25.6576 -2.35416 -0.383388
rclavicle -1.23246e-014 2.10712e-014
rhumerus -48.6657 -2.88297 -81.0388
rradius 56.1446
rwrist 16.2897
rhand -10.9659 -6.11899
rfingers 7.12502
rthumb 15.0533 -35.5517
lclavicle -1.23246e-014 2.10712e-014
lhumerus -45.3793 -22.1774 93.4709
lradius 82.6167
lwrist -22.6674
lhand -16.6441 3.9786
lfingers 7.12502
lthumb 9.57877 33.7408
rfemur -35.4905 -2.58261 18.586
rtibia 76.8875
rfoot 0.623273 -24.5869
rtoes -20.6242
lfemur -14.0677 -3.26126 -26.4531
ltibia 46.5493
lfoot -0.362348 27.0742
ltoes -9.06769
27
root 0.987303 15.2383 29.7647 -181.829 -6.11111 -181.11
lowerback 4.39486 0.392075 -4.61588
upperback 5.40643 0.0426626 -1.07455
thorax 3.106 -0.294017 1.46513
lowerneck -29.5428 1.5806 0.0429086
upperneck 44.2932 -3.83141 2.42854
head 25.5815 -2.301 -0.344409
rclavicle 1.15295e-014 2.82274e-014
rhumerus -48.7984 -3.13262 -80.2714
rradius 55.5073
rwrist 16.3196
rhand -10.8488 -6.12822
rfingers 7.12502
rthumb 15.1661 -35.5524
lclavicle 1.15295e-014 2.82274e-014
lhumerus -44.7825 -22.4477 93.5656
lradius 82.4949
lwrist -22.7906
lhand -16.3634 3.87848
lfingers 7.12502
lthumb 9.84961 33.6281
rfemur -36.5859 -2.48125 18.532
rtibia 74.457
rfoot 1.10454 -24.6883
rtoes -20.5199
lfemur -13.2103 -3.65869 -26.3543
ltibia 45.8518
lfoot -0.138475 27.1185
ltoes -9.3617
28
root 0.997039 15.2857 29.5878 -181.553 -6.37189 -181.096
lowerback 4.26236 0.104545 -4.71051
upperback 5.37845 -0.328006 -0.97901
thorax 3.1755 -0.480998 1.62182
lowerneck -29.4184 1.74891 0.048341
upperneck 44.3928 -3.6087 2.38299
head 25.6238 -2.25232 -0.314342
rclavicle 9.34288e-015 4.17448e-014
rhumerus -48.8971 -3.41234 -79.515
rradius 54.8658
rwrist 16.435
rhand -10.6935 -6.08016
rfingers 7.12502
rthumb 15.3157 -35.493
lclavicle 9.34288e-015 4.17448e-014
lhumerus -44.1889 -22.7145 93.5993
lradius 82.3429
lwrist -23.0219
lhand -16.0581 3.82886
lfingers 7.12502
lthumb 10.1441 33.5643
rfemur -37.6011 -2.38585 18.3971
rtibia 71.819
rfoot 1.86759 -24.7346
rtoes -20.451
lfemur -12.3938 -4.03489 -26.3043
ltibia 45.1015
lfoot 0.139699 27.0706
ltoes -9.70362
29
root 1.00939 15.3354 29.411 -181.233 -6.65125 -181.157
lowerback 4.10888 -0.18041 -4.89232
upperback 5.34309 -0.695515 -0.90511
thorax 3.25294 -0.669263 1.80291
lowerneck -29.4549 1.92498 0.122817
upperneck 44.5346 -3.38727 2.27258
head 25.782 -2.19527 -0.339744
rclavicle -2.38542e-015 2.78299e-015
rhumerus -48.9568 -3.71931 -78.7793
rradius 54.2225
rwrist 16.5813
rhand -10.5399 -5.98562
rfingers 7.12502
rthumb 15.4637 -35.3871
lclavicle -2.38542e-015 2.78299e-015
lhumerus -43.567 -22.9873 93.5692
lradius 82.1343
lwrist -23.3856
lhand -15.759 3.80229
lfingers 7.12502
lthumb 10.4326 33.5235
rfemur -38.5269 -2.31261 18.1666
rtibia 69.0045
rfoot 2.9125 -24.7068
rtoes -20.3256
lfemur -11.6115 -4.37885 -26.3069
ltibia 44.3007
lfoot 0.503179 26.91
ltoes -10.0629
30
root 1.02416 15.3861 29.2339 -180.885 -6.93577 -181.286
lowerback 3.9636 -0.455391 -5.15074
upperback 5.29293 -1.05113 -0.851146
thorax 3.31455 -0.853366 2.00452
lowerneck -29.5192 2.0862 0.181461
upperneck 44.674 -3.18174 2.16986
head 25.9556 -2.14446 -0.362525
rclavicle 6.06293e-015 -1.39149e-014
rhumerus -49.0129 -4.03282 -78.0737
rradius 53.5968
rwrist 16.7391
rhand -10.3694 -5.90918
rfingers 7.12502
rthumb 15.6279 -35.2979
lclavicle 6.06293e-015 -1.39149e-014
lhumerus -42.9286 -23.2735 93.5051
lradius 81.8536
lwrist -23.6856
lhand -15.4926 3.72042
lfingers 7.12502
lthumb 10.6896 33.4285
rfemur -39.3492 -2.23224 17.8431
rtibia 66.0375
rfoot 4.24675 -24.588
rtoes -20.1121
lfemur -10.8458 -4.66426 -26.3534
ltibia 43.4557
lfoot 0.910992 26.639
ltoes -10.4168
